<svg width="48" height="48" viewBox="0 0 48 48" fill="none" xmlns="http://www.w3.org/2000/svg">
<path d="M43.5466 25.4086V22.5912H47.9998C47.809 19.3042 46.9548 16.1927 45.5694 13.3882L41.6981 15.5834L40.3083 13.1325L44.176 10.9393C42.3887 8.18771 40.0545 5.82311 37.3282 4.00022L35.0839 7.83787L32.6518 6.41553L34.8988 2.57337C32.0203 1.10322 28.808 0.19741 25.4086 0V4.45317H22.5912V0C19.3042 0.190929 16.1927 1.04509 13.3882 2.43052L15.5834 6.3018L13.1326 7.69165L10.9393 3.82394C8.18771 5.61124 5.82302 7.9454 4.00022 10.6717L7.83787 12.916L6.41553 15.3481L2.57318 13.101C1.10322 15.9796 0.19741 19.1918 0 22.5912H4.45317V25.4086H0C0.190835 28.6956 1.04499 31.8071 2.43043 34.6117L6.3017 32.4164L7.69155 34.8673L3.82385 37.0605C5.61115 39.8121 7.94531 42.1767 10.6716 43.9996L12.916 40.1619L15.348 41.5843L13.1009 45.4266C15.9795 46.8968 19.1917 47.8026 22.5911 48V42.3764H25.4085V47.9998C28.6956 47.8089 31.8071 46.9547 34.6116 45.5693L32.4163 41.698L34.8671 40.3082L37.0604 44.1759C39.812 42.3886 42.1767 40.0544 43.9995 37.3281L40.1618 35.0838L41.5842 32.6517L45.4265 34.8988C46.8967 32.0203 47.8025 28.808 47.9999 25.4087H43.5466V25.4086ZM26.8497 22.5912H28.9973V25.4086H25.244L23.1247 29.1275L20.6769 27.7325L22.0013 25.4085H16.7817V22.5911H23.6069L30.7424 10.0701L33.1903 11.4652L26.8497 22.5912Z" fill="#556699"/>
</svg>
